<svg width="244" height="221" viewBox="0 0 244 221" fill="none" xmlns="http://www.w3.org/2000/svg">
<g clip-path="url(#clip0)">
<path d="M198.416 88.9134C185.427 79.1998 165.082 70.0134 142.599 63.7099C122.127 57.9704 102.16 55.1993 86.3715 55.907L86.2893 54.0703C102.266 53.3546 122.44 56.1489 143.095 61.9397C165.788 68.302 186.353 77.5969 199.517 87.441L198.416 88.9134Z" fill="#3F3D56"/>
<path d="M197.068 96.3953C197.079 105.001 195.276 113.513 191.775 121.374C191.482 122.033 191.178 122.685 190.861 123.331C184.772 135.807 174.636 145.851 162.107 151.824C149.578 157.798 135.395 159.349 121.871 156.224C108.348 153.099 96.2817 145.483 87.6414 134.617C79.0011 123.752 74.2962 110.279 74.2942 96.3953C74.2942 94.9742 74.3426 93.5641 74.4394 92.165C74.4853 91.4536 74.5447 90.7464 74.6177 90.0435C76.2456 74.3928 83.8176 59.9644 95.7712 49.7357C107.725 39.5069 123.148 34.2585 138.857 35.0734C154.567 35.8883 169.364 42.7043 180.196 54.115C191.028 65.5257 197.067 80.6602 197.068 96.3953H197.068Z" fill="#F2F2F2"/>
<path opacity="0.1" d="M191.775 121.374C191.483 122.033 191.178 122.685 190.861 123.33C189.067 123.525 187.179 123.667 185.197 123.755C183.556 123.829 181.866 123.865 180.141 123.865C165.066 123.865 146.924 121.082 128.39 115.887C107.735 110.095 89.0492 101.995 75.7719 93.0769C75.3198 92.7736 74.8756 92.4696 74.4395 92.1651C74.4854 91.4536 74.5448 90.7464 74.6177 90.0435C75.3217 90.5454 76.0477 91.0479 76.7957 91.551C89.9167 100.363 108.415 108.377 128.886 114.116C147.258 119.268 165.23 122.027 180.131 122.027C181.835 122.027 183.496 121.991 185.114 121.919C187.47 121.812 189.691 121.631 191.775 121.374Z" fill="black"/>
<path d="M180.141 122.395C165.067 122.395 146.923 119.612 128.39 114.416C107.736 108.625 89.049 100.524 75.7717 91.6064C62.2172 82.5022 55.8613 73.5313 57.8746 66.3462C59.8878 59.1612 69.9791 54.8015 86.2894 54.0703L86.3716 55.907C78.7549 56.2484 72.5476 57.3808 67.9221 59.2728C63.3079 61.16 60.5228 63.7069 59.6443 66.8425C58.7657 69.978 59.8217 73.6016 62.7831 77.613C65.7517 81.6339 70.4664 85.8285 76.7962 90.0801C89.9157 98.8922 108.415 106.906 128.887 112.646C147.259 117.796 165.229 120.557 180.132 120.557C181.835 120.557 183.495 120.521 185.113 120.448C192.73 120.107 198.938 118.975 203.563 117.083C208.177 115.195 210.962 112.649 211.841 109.513C213.419 103.883 208.651 96.567 198.416 88.9134L199.517 87.441C204.784 91.3795 208.682 95.2617 211.105 98.9796C213.701 102.965 214.545 106.676 213.611 110.009C211.597 117.194 201.506 121.554 185.196 122.285C183.555 122.359 181.867 122.395 180.141 122.395Z" fill="#3F3D56"/>
<path d="M137.305 23.9167C137.694 23.9167 138.008 23.6016 138.008 23.213C138.008 22.8244 137.694 22.5094 137.305 22.5094C136.917 22.5094 136.602 22.8244 136.602 23.213C136.602 23.6016 136.917 23.9167 137.305 23.9167Z" fill="#F2F2F2"/>
<path d="M43.9829 54.4496C44.6512 54.4496 45.193 53.9077 45.193 53.2391C45.193 52.5706 44.6512 52.0286 43.9829 52.0286C43.3145 52.0286 42.7727 52.5706 42.7727 53.2391C42.7727 53.9077 43.3145 54.4496 43.9829 54.4496Z" fill="#CCCCCC"/>
<path d="M41.4036 103.008C42.7239 103.008 43.7942 101.938 43.7942 100.617C43.7942 99.2964 42.7239 98.2258 41.4036 98.2258C40.0833 98.2258 39.0129 99.2964 39.0129 100.617C39.0129 101.938 40.0833 103.008 41.4036 103.008Z" fill="#CCCCCC"/>
<path d="M184.904 29.0285C185.784 29.0285 186.497 28.315 186.497 27.4348C186.497 26.5546 185.784 25.8411 184.904 25.8411C184.024 25.8411 183.311 26.5546 183.311 27.4348C183.311 28.315 184.024 29.0285 184.904 29.0285Z" fill="#CCCCCC"/>
<path d="M241.413 96.1684C242.842 96.1684 244 95.0099 244 93.5808C244 92.1517 242.842 90.9931 241.413 90.9931C239.984 90.9931 238.826 92.1517 238.826 93.5808C238.826 95.0099 239.984 96.1684 241.413 96.1684Z" fill="#CCCCCC"/>
<path d="M221.185 53.3624C221.798 53.3624 222.295 52.8654 222.295 52.2522C222.295 51.6391 221.798 51.142 221.185 51.142C220.572 51.142 220.075 51.6391 220.075 52.2522C220.075 52.8654 220.572 53.3624 221.185 53.3624Z" fill="#CCCCCC"/>
<path d="M86.4234 39.7213C87.3796 39.7213 88.1548 38.9458 88.1548 37.9893C88.1548 37.0328 87.3796 36.2574 86.4234 36.2574C85.4671 36.2574 84.6919 37.0328 84.6919 37.9893C84.6919 38.9458 85.4671 39.7213 86.4234 39.7213Z" fill="#CCCCCC"/>
<path d="M217.3 89.4441C217.913 89.4441 218.41 88.947 218.41 88.3339C218.41 87.7207 217.913 87.2237 217.3 87.2237C216.687 87.2237 216.19 87.7207 216.19 88.3339C216.19 88.947 216.687 89.4441 217.3 89.4441Z" fill="#CCCCCC"/>
<path d="M1.38141 93.8006C2.14433 93.8006 2.76281 93.1819 2.76281 92.4188C2.76281 91.6556 2.14433 91.037 1.38141 91.037C0.618476 91.037 0 91.6556 0 92.4188C0 93.1819 0.618476 93.8006 1.38141 93.8006Z" fill="#CCCCCC"/>
<path d="M22.3676 71.175C23.1938 71.175 23.8635 70.5051 23.8635 69.6786C23.8635 68.8522 23.1938 68.1822 22.3676 68.1822C21.5414 68.1822 20.8716 68.8522 20.8716 69.6786C20.8716 70.5051 21.5414 71.175 22.3676 71.175Z" fill="#CCCCCC"/>
<path d="M118.423 2.95285H115.471V0H113.887V2.95285H110.933V4.53859H113.887V7.49145H115.471V4.53859H118.423V2.95285Z" fill="#CCCCCC"/>
<path d="M186.903 162.739H185.049V160.885H184.055V162.739H182.201V163.733H184.055V165.588H185.049V163.733H186.903V162.739Z" fill="#CCCCCC"/>
<path d="M229.688 153.248H228.303V151.862H227.558V153.248H226.173V153.992H227.558V155.378H228.303V153.992H229.688V153.248Z" fill="#CCCCCC"/>
<path opacity="0.1" d="M96.9749 91.2353C99.8239 91.2353 102.133 88.9251 102.133 86.0753C102.133 83.2256 99.8239 80.9154 96.9749 80.9154C94.1259 80.9154 91.8164 83.2256 91.8164 86.0753C91.8164 88.9251 94.1259 91.2353 96.9749 91.2353Z" fill="black"/>
<path opacity="0.1" d="M153.953 143.07C156.802 143.07 159.111 140.759 159.111 137.91C159.111 135.06 156.802 132.75 153.953 132.75C151.104 132.75 148.794 135.06 148.794 137.91C148.794 140.759 151.104 143.07 153.953 143.07Z" fill="black"/>
<path opacity="0.1" d="M136.602 99.2098C139.451 99.2098 141.76 96.8996 141.76 94.0499C141.76 91.2001 139.451 88.8899 136.602 88.8899C133.753 88.8899 131.443 91.2001 131.443 94.0499C131.443 96.8996 133.753 99.2098 136.602 99.2098Z" fill="black"/>
<path opacity="0.1" d="M99.554 127.59C102.403 127.59 104.713 125.28 104.713 122.43C104.713 119.58 102.403 117.27 99.554 117.27C96.705 117.27 94.3955 119.58 94.3955 122.43C94.3955 125.28 96.705 127.59 99.554 127.59Z" fill="black"/>
<path opacity="0.1" d="M164.27 71.5336C167.119 71.5336 169.428 69.2234 169.428 66.3736C169.428 63.5238 167.119 61.2136 164.27 61.2136C161.421 61.2136 159.111 63.5238 159.111 66.3736C159.111 69.2234 161.421 71.5336 164.27 71.5336Z" fill="black"/>
<path opacity="0.1" d="M181.387 106.481C184.236 106.481 186.545 104.171 186.545 101.321C186.545 98.471 184.236 96.1608 181.387 96.1608C178.538 96.1608 176.228 98.471 176.228 101.321C176.228 104.171 178.538 106.481 181.387 106.481Z" fill="black"/>
<path d="M164.27 51.5973C168.025 51.5973 171.07 48.552 171.07 44.7955C171.07 41.039 168.025 37.9937 164.27 37.9937C160.514 37.9937 157.47 41.039 157.47 44.7955C157.47 48.552 160.514 51.5973 164.27 51.5973Z" fill="white"/>
<path d="M164.27 34.9447C161.72 34.9447 159.275 35.9578 157.472 37.7612C155.669 39.5646 154.656 42.0106 154.656 44.561C154.656 49.8719 164.27 67.3118 164.27 67.3118C164.27 67.3118 173.884 49.8719 173.884 44.561C173.884 42.0106 172.871 39.5646 171.068 37.7612C169.265 35.9578 166.82 34.9447 164.27 34.9447ZM164.27 49.2519C163.389 49.2519 162.528 48.9905 161.795 48.5009C161.062 48.0112 160.491 47.3152 160.154 46.5009C159.817 45.6866 159.729 44.7906 159.901 43.9261C160.072 43.0617 160.497 42.2676 161.12 41.6444C161.743 41.0212 162.537 40.5967 163.401 40.4248C164.265 40.2528 165.161 40.3411 165.975 40.6784C166.789 41.0157 167.485 41.5869 167.974 42.3197C168.464 43.0526 168.725 43.9141 168.725 44.7955C168.725 45.3807 168.61 45.9602 168.386 46.5009C168.162 47.0416 167.834 47.5328 167.42 47.9467C167.007 48.3605 166.515 48.6887 165.975 48.9127C165.434 49.1366 164.855 49.2519 164.27 49.2519Z" fill="#EC6E4C"/>
<path d="M96.9483 70.0469C100.704 70.0469 103.748 67.0016 103.748 63.2451C103.748 59.4886 100.704 56.4433 96.9483 56.4433C93.1928 56.4433 90.1484 59.4886 90.1484 63.2451C90.1484 67.0016 93.1928 70.0469 96.9483 70.0469Z" fill="white"/>
<path d="M96.9483 53.3942C94.3986 53.3942 91.9534 54.4074 90.1505 56.2108C88.3476 58.0142 87.3347 60.4601 87.3347 63.0105C87.3347 68.3215 96.9483 85.7614 96.9483 85.7614C96.9483 85.7614 106.562 68.3215 106.562 63.0105C106.562 60.4601 105.549 58.0142 103.746 56.2108C101.943 54.4074 99.498 53.3942 96.9483 53.3942V53.3942ZM96.9483 67.7015C96.0672 67.7014 95.2058 67.4401 94.4732 66.9504C93.7405 66.4607 93.1695 65.7648 92.8323 64.9505C92.4951 64.1362 92.4069 63.2401 92.5788 62.3757C92.7507 61.5112 93.175 60.7172 93.7981 60.094C94.4211 59.4707 95.215 59.0463 96.0792 58.8744C96.9434 58.7024 97.8391 58.7907 98.6532 59.128C99.4673 59.4653 100.163 60.0364 100.653 60.7693C101.142 61.5021 101.403 62.3637 101.403 63.2451C101.403 63.8303 101.288 64.4098 101.064 64.9505C100.84 65.4911 100.512 65.9824 100.099 66.3962C99.6848 66.81 99.1937 67.1383 98.6532 67.3622C98.1127 67.5862 97.5334 67.7015 96.9483 67.7015V67.7015Z" fill="#3F3D56"/>
<path d="M182.253 85.729C186.009 85.729 189.053 82.6837 189.053 78.9272C189.053 75.1707 186.009 72.1254 182.253 72.1254C178.498 72.1254 175.453 75.1707 175.453 78.9272C175.453 82.6837 178.498 85.729 182.253 85.729Z" fill="white"/>
<path d="M182.253 69.0764C179.704 69.0764 177.258 70.0895 175.455 71.8929C173.653 73.6963 172.64 76.1423 172.64 78.6927C172.64 84.0036 182.253 101.443 182.253 101.443C182.253 101.443 191.867 84.0036 191.867 78.6927C191.867 76.1423 190.854 73.6963 189.051 71.8929C187.248 70.0895 184.803 69.0764 182.253 69.0764V69.0764ZM182.253 83.3836C181.372 83.3836 180.511 83.1222 179.778 82.6325C179.045 82.1429 178.474 81.4469 178.137 80.6326C177.8 79.8183 177.712 78.9223 177.884 78.0578C178.056 77.1934 178.48 76.3993 179.103 75.7761C179.726 75.1529 180.52 74.7284 181.384 74.5565C182.248 74.3845 183.144 74.4728 183.958 74.8101C184.772 75.1474 185.468 75.7186 185.957 76.4514C186.447 77.1843 186.708 78.0458 186.708 78.9272C186.708 79.5124 186.593 80.0919 186.369 80.6326C186.145 81.1733 185.817 81.6645 185.403 82.0784C184.99 82.4922 184.499 82.8204 183.958 83.0444C183.418 83.2683 182.838 83.3836 182.253 83.3836Z" fill="#CCCCCC"/>
<path d="M66.9761 119.861C70.7316 119.861 73.776 116.815 73.776 113.059C73.776 109.302 70.7316 106.257 66.9761 106.257C63.2207 106.257 60.1763 109.302 60.1763 113.059C60.1763 116.815 63.2207 119.861 66.9761 119.861Z" fill="white"/>
<path d="M66.9763 103.208C64.4267 103.208 61.9814 104.221 60.1785 106.025C58.3756 107.828 57.3628 110.274 57.3628 112.824C57.3628 118.135 66.9763 135.575 66.9763 135.575C66.9763 135.575 76.5899 118.135 76.5899 112.824C76.5899 110.274 75.577 107.828 73.7742 106.025C71.9713 104.221 69.526 103.208 66.9763 103.208ZM66.9763 117.515C66.0952 117.515 65.2339 117.254 64.5012 116.764C63.7686 116.275 63.1976 115.579 62.8604 114.764C62.5232 113.95 62.435 113.054 62.6069 112.19C62.7788 111.325 63.2031 110.531 63.8261 109.908C64.4492 109.285 65.243 108.86 66.1072 108.688C66.9714 108.516 67.8672 108.604 68.6813 108.942C69.4953 109.279 70.1911 109.85 70.6806 110.583C71.1702 111.316 71.4315 112.178 71.4315 113.059C71.4315 113.644 71.3162 114.224 71.0923 114.764C70.8684 115.305 70.5403 115.796 70.1266 116.21C69.7129 116.624 69.2218 116.952 68.6812 117.176C68.1407 117.4 67.5614 117.515 66.9763 117.515V117.515Z" fill="#EC6E4C"/>
<path d="M223.495 167.674C224.814 166.569 223.031 162.263 219.51 158.057C215.99 153.851 212.066 151.338 210.746 152.444C209.426 153.549 211.21 157.855 214.73 162.061C218.251 166.266 222.175 168.78 223.495 167.674Z" fill="#2F2E41"/>
<path d="M195.998 176.474C206.966 176.474 215.857 167.581 215.857 156.61C215.857 145.639 206.966 136.746 195.998 136.746C185.03 136.746 176.139 145.639 176.139 156.61C176.139 167.581 185.03 176.474 195.998 176.474Z" fill="#2F2E41"/>
<path d="M204.404 172.2H198.371V183.012H204.404V172.2Z" fill="#2F2E41"/>
<path d="M192.338 172.2H186.305V183.012H192.338V172.2Z" fill="#2F2E41"/>
<path d="M199.376 185.023C202.153 185.023 204.404 184.179 204.404 183.137C204.404 182.096 202.153 181.252 199.376 181.252C196.6 181.252 194.349 182.096 194.349 183.137C194.349 184.179 196.6 185.023 199.376 185.023Z" fill="#2F2E41"/>
<path d="M187.31 184.772C190.087 184.772 192.338 183.928 192.338 182.886C192.338 181.845 190.087 181 187.31 181C184.533 181 182.282 181.845 182.282 182.886C182.282 183.928 184.533 184.772 187.31 184.772Z" fill="#2F2E41"/>
<path d="M189.763 131.64C191.536 124.497 199.363 120.293 207.246 122.251C215.128 124.208 220.08 131.586 218.307 138.73C216.534 145.873 210.651 145.896 202.768 143.938C194.886 141.98 187.99 138.783 189.763 131.64Z" fill="#EC6E4C"/>
<path d="M182.602 151.649C183.34 150.093 179.921 146.926 174.966 144.575C170.012 142.225 165.397 141.58 164.659 143.136C163.922 144.692 167.34 147.859 172.295 150.21C177.25 152.56 181.864 153.205 182.602 151.649Z" fill="#2F2E41"/>
<path d="M193.029 159.041C196.686 159.041 199.65 156.076 199.65 152.418C199.65 148.761 196.686 145.796 193.029 145.796C189.372 145.796 186.408 148.761 186.408 152.418C186.408 156.076 189.372 159.041 193.029 159.041Z" fill="white"/>
<path d="M190.308 152.252C191.527 152.252 192.515 151.264 192.515 150.044C192.515 148.825 191.527 147.837 190.308 147.837C189.089 147.837 188.101 148.825 188.101 150.044C188.101 151.264 189.089 152.252 190.308 152.252Z" fill="#3F3D56"/>
<path d="M197.183 166.216C197.286 166.787 197.277 167.372 197.155 167.939C197.032 168.506 196.8 169.043 196.47 169.52C196.14 169.996 195.719 170.404 195.232 170.718C194.745 171.032 194.201 171.247 193.631 171.351C193.06 171.455 192.475 171.445 191.909 171.323C191.342 171.201 190.805 170.968 190.328 170.638C189.852 170.308 189.445 169.887 189.131 169.4C188.816 168.913 188.601 168.368 188.498 167.798V167.798L188.496 167.789C188.062 165.39 189.916 164.541 192.315 164.107C194.714 163.672 196.748 163.817 197.183 166.216Z" fill="white"/>
<path d="M155.1 114.41C153.057 112.686 150.558 111.593 147.906 111.264C145.254 110.935 142.563 111.384 140.161 112.557C137.76 113.729 135.751 115.575 134.379 117.869C133.007 120.163 132.331 122.807 132.433 125.478C132.536 128.149 133.412 130.733 134.956 132.915C136.5 135.097 138.645 136.784 141.129 137.769C143.614 138.754 146.331 138.995 148.95 138.464C151.569 137.933 153.977 136.651 155.882 134.776L172.792 149.049C173.049 149.266 173.383 149.372 173.718 149.344C174.054 149.316 174.364 149.155 174.582 148.898C174.799 148.641 174.905 148.308 174.877 147.972C174.85 147.636 174.689 147.326 174.433 147.108L174.431 147.106L157.52 132.833C159.485 130.013 160.325 126.561 159.878 123.153C159.43 119.745 157.726 116.627 155.1 114.41V114.41ZM154.01 131.459C152.692 133.021 150.942 134.156 148.979 134.723C147.016 135.289 144.929 135.261 142.983 134.641C141.036 134.021 139.317 132.838 138.043 131.241C136.769 129.644 135.996 127.704 135.824 125.668C135.652 123.632 136.087 121.59 137.074 119.802C138.062 118.013 139.557 116.557 141.372 115.619C143.186 114.68 145.238 114.301 147.269 114.529C149.299 114.757 151.215 115.582 152.777 116.9V116.9C154.87 118.667 156.176 121.193 156.408 123.924C156.639 126.654 155.776 129.365 154.01 131.459V131.459Z" fill="#3F3D56"/>
<path opacity="0.3" d="M139.455 132.692C137.474 131.02 136.193 128.663 135.869 126.09C135.544 123.517 136.199 120.916 137.702 118.803C137.505 119.002 137.314 119.21 137.13 119.428C136.255 120.465 135.593 121.664 135.181 122.957C134.77 124.25 134.617 125.611 134.732 126.963C134.846 128.315 135.226 129.631 135.849 130.836C136.472 132.042 137.326 133.112 138.363 133.987C139.399 134.862 140.598 135.524 141.891 135.936C143.183 136.347 144.544 136.5 145.895 136.386C147.247 136.271 148.563 135.891 149.768 135.268C150.972 134.645 152.043 133.791 152.918 132.754C153.101 132.536 153.275 132.312 153.437 132.084C151.608 133.922 149.155 135.005 146.565 135.118C143.975 135.23 141.437 134.365 139.455 132.692V132.692Z" fill="black"/>
<path d="M68.2363 142.723C70.1942 137.599 70.4778 132.947 68.8697 132.332C67.2616 131.717 64.3709 135.372 62.413 140.496C60.4551 145.62 60.1715 150.272 61.7796 150.887C63.3877 151.502 66.2785 147.846 68.2363 142.723Z" fill="#2F2E41"/>
<path d="M46.9693 176.474C57.9369 176.474 66.828 167.581 66.828 156.61C66.828 145.639 57.9369 136.745 46.9693 136.745C36.0016 136.745 27.1106 145.639 27.1106 156.61C27.1106 167.581 36.0016 176.474 46.9693 176.474Z" fill="#2F2E41"/>
<path d="M43.9527 172.2H37.9197V183.012H43.9527V172.2Z" fill="#2F2E41"/>
<path d="M56.0189 172.2H49.9858V183.012H56.0189V172.2Z" fill="#2F2E41"/>
<path d="M42.9472 185.023C45.7238 185.023 47.9747 184.179 47.9747 183.137C47.9747 182.096 45.7238 181.252 42.9472 181.252C40.1706 181.252 37.9197 182.096 37.9197 183.137C37.9197 184.179 40.1706 185.023 42.9472 185.023Z" fill="#2F2E41"/>
<path d="M55.0134 184.772C57.79 184.772 60.0409 183.928 60.0409 182.886C60.0409 181.845 57.79 181 55.0134 181C52.2367 181 49.9858 181.845 49.9858 182.886C49.9858 183.928 52.2367 184.772 55.0134 184.772Z" fill="#2F2E41"/>
<path d="M47.472 158.37C51.2204 158.37 54.2591 155.33 54.2591 151.581C54.2591 147.831 51.2204 144.792 47.472 144.792C43.7235 144.792 40.6848 147.831 40.6848 151.581C40.6848 155.33 43.7235 158.37 47.472 158.37Z" fill="white"/>
<path d="M47.4721 153.844C48.7216 153.844 49.7345 152.831 49.7345 151.581C49.7345 150.331 48.7216 149.318 47.4721 149.318C46.2226 149.318 45.2097 150.331 45.2097 151.581C45.2097 152.831 46.2226 153.844 47.4721 153.844Z" fill="#3F3D56"/>
<path d="M27.7057 138.137C26.1022 130.953 31.2279 123.695 39.1544 121.924C47.0808 120.154 54.8063 124.542 56.4098 131.725C58.0133 138.909 52.7602 141.558 44.8338 143.328C36.9073 145.099 29.3092 145.32 27.7057 138.137Z" fill="#EC6E4C"/>
<path d="M33.5734 151.649C34.3111 150.093 30.8925 146.926 25.9377 144.575C20.9829 142.225 16.3682 141.581 15.6305 143.136C14.8927 144.692 18.3113 147.859 23.2661 150.21C28.2209 152.561 32.8356 153.205 33.5734 151.649Z" fill="#2F2E41"/>
<path d="M37.2148 163.776C37.2148 165.72 42.2194 169.559 47.7726 169.559C53.3259 169.559 58.5327 164.086 58.5327 162.142C58.5327 160.197 53.3259 162.519 47.7726 162.519C42.2194 162.519 37.2148 161.832 37.2148 163.776Z" fill="white"/>
<path d="M111.395 212.451C122.362 212.451 131.253 203.557 131.253 192.586C131.253 181.616 122.362 172.722 111.395 172.722C100.427 172.722 91.5361 181.616 91.5361 192.586C91.5361 203.557 100.427 212.451 111.395 212.451Z" fill="#2F2E41"/>
<path d="M108.378 208.176H102.345V218.988H108.378V208.176Z" fill="#2F2E41"/>
<path d="M120.444 208.176H114.411V218.988H120.444V208.176Z" fill="#2F2E41"/>
<path d="M107.373 221C110.15 221 112.401 220.156 112.401 219.114C112.401 218.073 110.15 217.228 107.373 217.228C104.596 217.228 102.345 218.073 102.345 219.114C102.345 220.156 104.596 221 107.373 221Z" fill="#2F2E41"/>
<path d="M119.439 220.749C122.216 220.749 124.466 219.904 124.466 218.863C124.466 217.821 122.216 216.977 119.439 216.977C116.662 216.977 114.411 217.821 114.411 218.863C114.411 219.904 116.662 220.749 119.439 220.749Z" fill="#2F2E41"/>
<path d="M92.1312 174.113C90.5277 166.93 95.6535 159.672 103.58 157.901C111.506 156.131 119.232 160.519 120.835 167.702C122.439 174.885 117.186 177.535 109.259 179.305C101.333 181.075 93.7347 181.296 92.1312 174.113Z" fill="#3F3D56"/>
<path d="M111.475 189.144C111.475 189.144 112.915 182.804 110.178 183.092C107.441 183.381 103.696 183.525 102.687 183.525C101.679 183.525 95.9168 182.804 95.0525 186.551C94.1881 190.297 93.0357 194.908 95.4846 197.79C95.4846 197.79 96.3489 210.471 99.6622 211.335C102.975 212.2 111.763 213.209 114.932 209.03C115.86 207.787 116.508 206.357 116.831 204.84C117.154 203.323 117.145 201.753 116.805 200.24H115.364L111.475 189.144Z" fill="#EC6E4C"/>
<path opacity="0.1" d="M96.925 198.799C96.925 198.799 99.374 199.952 104.416 199.231V201.393L96.925 200.816V198.799Z" fill="black"/>
<path d="M115.227 206.024L113.596 205.162L120.849 191.433C121.122 190.917 121.258 190.341 121.246 189.758C121.233 189.175 121.072 188.605 120.778 188.102C120.484 187.599 120.067 187.179 119.565 186.882C119.064 186.585 118.495 186.421 117.912 186.405L110.3 186.2L110.35 184.356L117.962 184.561C118.858 184.585 119.733 184.837 120.505 185.294C121.276 185.751 121.918 186.397 122.371 187.171C122.823 187.945 123.07 188.822 123.09 189.719C123.109 190.615 122.899 191.502 122.48 192.295L115.227 206.024Z" fill="#EC6E4C"/>
<path d="M97.6966 206.024L90.4435 192.295C90.0246 191.502 89.8148 190.615 89.834 189.719C89.8531 188.822 90.1005 187.945 90.5529 187.171C91.0052 186.397 91.6475 185.751 92.419 185.294C93.1905 184.837 94.0657 184.585 94.9618 184.561L102.574 184.356L102.623 186.2L95.0115 186.405C94.4289 186.421 93.8599 186.585 93.3584 186.882C92.8569 187.179 92.4393 187.599 92.1453 188.102C91.8512 188.605 91.6904 189.175 91.6779 189.758C91.6655 190.341 91.8019 190.917 92.0742 191.433L99.3273 205.162L97.6966 206.024Z" fill="#EC6E4C"/>
<path d="M136.859 197.683C137.752 195.995 134.116 192.318 128.738 189.472C123.359 186.627 118.275 185.689 117.382 187.378C116.489 189.067 120.125 192.743 125.503 195.589C130.882 198.434 135.966 199.372 136.859 197.683Z" fill="#2F2E41"/>
</g>
<defs>
<clipPath id="clip0">
<rect width="244" height="221" fill="white"/>
</clipPath>
</defs>
</svg>
