<svg width="244" height="170" viewBox="0 0 244 170" fill="none" xmlns="http://www.w3.org/2000/svg">
<g clip-path="url(#clip0)">
<path d="M46.29 36.4631C53.9863 36.4631 60.2255 30.2068 60.2255 22.4892C60.2255 14.7717 53.9863 8.51534 46.29 8.51534C38.5936 8.51534 32.3545 14.7717 32.3545 22.4892C32.3545 30.2068 38.5936 36.4631 46.29 36.4631Z" fill="#FF6584"/>
<path d="M114.092 74.9178C114.092 107.89 94.5443 119.403 70.4312 119.403C46.3181 119.403 26.7705 107.89 26.7705 74.9178C26.7705 41.9457 70.4312 0 70.4312 0C70.4312 0 114.092 41.9457 114.092 74.9178Z" fill="#F2F2F2"/>
<path d="M68.8405 114.359L69.2878 86.7642L87.8969 52.6256L69.3579 82.4354L69.5589 70.0277L82.3843 45.3289L69.612 66.7443L69.9734 44.4284L83.7073 24.765L70.0305 40.9192L70.2563 0L68.8366 54.1697L68.9533 51.935L54.9902 30.5032L68.7295 56.2248L67.4285 81.1476L67.3897 80.4863L51.2925 57.9324L67.3409 82.8232L67.1783 85.94L67.1491 85.987L67.1624 86.2428L63.8616 149.474H68.2718L68.8009 116.814L84.8097 91.9842L68.8405 114.359Z" fill="#3F3D56"/>
<path d="M244 88.4222C244 115.411 227.999 124.835 208.262 124.835C188.524 124.835 172.523 115.411 172.523 88.4222C172.523 61.433 208.262 27.0984 208.262 27.0984C208.262 27.0984 244 61.433 244 88.4222Z" fill="#F2F2F2"/>
<path d="M206.96 120.707L207.326 98.1191L222.558 70.1751L207.383 94.5757L207.548 84.4195L218.046 64.2021L207.591 81.7317L207.887 63.4652L219.129 47.3697L207.933 60.5929L208.119 27.0984L206.956 71.4388L207.052 69.6098L195.622 52.0667L206.869 73.1212L205.804 93.5217L205.772 92.9802L192.596 74.5188L205.732 94.8931L205.599 97.4444L205.575 97.4829L205.586 97.6923L202.884 149.45H206.494L206.927 122.716L220.031 102.392L206.96 120.707Z" fill="#3F3D56"/>
<path d="M120.758 154.698C187.451 154.698 241.516 151.958 241.516 148.577C241.516 145.196 187.451 142.456 120.758 142.456C54.0652 142.456 0 145.196 0 148.577C0 151.958 54.0652 154.698 120.758 154.698Z" fill="#3F3D56"/>
<path d="M194.323 159.739C205.746 159.739 215.006 159.269 215.006 158.69C215.006 158.111 205.746 157.642 194.323 157.642C182.9 157.642 173.64 158.111 173.64 158.69C173.64 159.269 182.9 159.739 194.323 159.739Z" fill="#3F3D56"/>
<path d="M119.479 169.852C130.902 169.852 140.162 169.382 140.162 168.803C140.162 168.224 130.902 167.755 119.479 167.755C108.056 167.755 98.7964 168.224 98.7964 168.803C98.7964 169.382 108.056 169.852 119.479 169.852Z" fill="#3F3D56"/>
<path d="M62.6975 162.719C88.7946 162.719 109.951 161.647 109.951 160.324C109.951 159.001 88.7946 157.929 62.6975 157.929C36.6003 157.929 15.4443 159.001 15.4443 160.324C15.4443 161.647 36.6003 162.719 62.6975 162.719Z" fill="#3F3D56"/>
<path d="M21.1391 140.889C30.6393 140.889 38.3407 133.167 38.3407 123.64C38.3407 114.114 30.6393 106.391 21.1391 106.391C11.6389 106.391 3.9375 114.114 3.9375 123.64C3.9375 133.167 11.6389 140.889 21.1391 140.889Z" fill="#2F2E41"/>
<path d="M18.3675 137.146L13.1421 137.084L13.0318 146.472L18.2572 146.534L18.3675 137.146Z" fill="#2F2E41"/>
<path d="M28.8182 137.269L23.5928 137.208L23.4825 146.596L28.7079 146.657L28.8182 137.269Z" fill="#2F2E41"/>
<path d="M21.7395 146.684C21.7502 145.78 19.8092 145.024 17.4043 144.995C14.9993 144.967 13.0411 145.677 13.0305 146.581C13.0198 147.486 14.9608 148.242 17.3658 148.27C19.7707 148.299 21.7289 147.588 21.7395 146.684Z" fill="#2F2E41"/>
<path d="M32.1932 146.589C32.2038 145.685 30.2628 144.929 27.8579 144.9C25.4529 144.872 23.4947 145.582 23.4841 146.486C23.4735 147.391 25.4144 148.147 27.8194 148.175C30.2243 148.204 32.1825 147.494 32.1932 146.589Z" fill="#2F2E41"/>
<path d="M21.6261 125.174C24.873 125.174 27.5051 122.535 27.5051 119.279C27.5051 116.023 24.873 113.384 21.6261 113.384C18.3792 113.384 15.7471 116.023 15.7471 119.279C15.7471 122.535 18.3792 125.174 21.6261 125.174Z" fill="white"/>
<path d="M21.6257 121.244C22.708 121.244 23.5854 120.364 23.5854 119.279C23.5854 118.194 22.708 117.314 21.6257 117.314C20.5434 117.314 19.666 118.194 19.666 119.279C19.666 120.364 20.5434 121.244 21.6257 121.244Z" fill="#3F3D56"/>
<path d="M4.64247 107.403C3.3269 101.15 7.84057 94.9 14.724 93.4439C21.6075 91.9878 28.2541 95.8769 29.5697 102.13C30.8852 108.384 26.3083 110.63 19.4248 112.086C12.5414 113.543 5.95803 113.657 4.64247 107.403Z" fill="#EC6E4C"/>
<path d="M47.3792 133.263C47.3792 145.289 40.2503 149.487 31.4557 149.487C31.252 149.487 31.0486 149.485 30.8455 149.481C30.438 149.472 30.0344 149.452 29.6357 149.425C21.6987 148.862 15.5322 144.447 15.5322 133.263C15.5322 121.689 30.2818 107.085 31.3897 106.004L31.3917 106.002C31.4344 105.96 31.4557 105.94 31.4557 105.94C31.4557 105.94 47.3792 121.238 47.3792 133.263Z" fill="#EC6E4C"/>
<path d="M30.8754 147.648L36.6993 139.487L30.8608 148.544L30.8453 149.481C30.4378 149.472 30.0342 149.452 29.6355 149.425L30.2632 137.394L30.2583 137.301L30.269 137.283L30.3282 136.147L24.4751 127.068L30.3466 135.295L30.3602 135.536L30.8346 126.445L25.8237 117.064L30.8957 124.85L31.3895 106.004L31.3915 105.94V106.002L31.309 120.863L36.2977 114.972L31.2886 122.144L31.1567 130.282L35.8145 122.471L31.1373 131.48L31.0636 136.005L37.8257 125.133L31.0383 137.584L30.8754 147.648Z" fill="#3F3D56"/>
<path d="M155.138 140.703C164.638 140.703 172.34 132.98 172.34 123.454C172.34 113.927 164.638 106.205 155.138 106.205C145.638 106.205 137.937 113.927 137.937 123.454C137.937 132.98 145.638 140.703 155.138 140.703Z" fill="#2F2E41"/>
<path d="M156.606 137.163L151.611 138.703L154.361 147.677L159.357 146.138L156.606 137.163Z" fill="#2F2E41"/>
<path d="M166.596 134.086L161.601 135.625L164.352 144.6L169.347 143.06L166.596 134.086Z" fill="#2F2E41"/>
<path d="M159.036 148.064C161.335 147.356 162.984 146.08 162.719 145.216C162.454 144.351 160.375 144.225 158.076 144.933C155.777 145.642 154.128 146.917 154.393 147.782C154.658 148.646 156.737 148.773 159.036 148.064Z" fill="#2F2E41"/>
<path d="M168.962 144.777C171.261 144.068 172.91 142.793 172.645 141.929C172.38 141.064 170.302 140.938 168.003 141.646C165.704 142.355 164.055 143.63 164.32 144.494C164.585 145.359 166.663 145.485 168.962 144.777Z" fill="#2F2E41"/>
<path d="M154.275 125.047C157.522 125.047 160.154 122.407 160.154 119.151C160.154 115.896 157.522 113.256 154.275 113.256C151.028 113.256 148.396 115.896 148.396 119.151C148.396 122.407 151.028 125.047 154.275 125.047Z" fill="white"/>
<path d="M154.275 121.116C155.357 121.116 156.235 120.237 156.235 119.151C156.235 118.066 155.357 117.186 154.275 117.186C153.193 117.186 152.315 118.066 152.315 119.151C152.315 120.237 153.193 121.116 154.275 121.116Z" fill="#3F3D56"/>
<path d="M134.489 113.036C131.334 107.483 133.731 100.15 139.844 96.6582C145.956 93.1662 153.469 94.8371 156.624 100.39C159.779 105.943 156.104 109.483 149.991 112.975C143.878 116.467 137.644 118.589 134.489 113.036Z" fill="#EC6E4C"/>
<path d="M124.46 131.061C124.46 142.1 117.916 145.954 109.843 145.954C109.656 145.954 109.469 145.952 109.282 145.948C108.908 145.94 108.538 145.922 108.172 145.897C100.886 145.38 95.2256 141.327 95.2256 131.061C95.2256 120.437 108.765 107.031 109.782 106.038L109.784 106.037C109.823 105.998 109.843 105.98 109.843 105.98C109.843 105.98 124.46 120.022 124.46 131.061Z" fill="#EC6E4C"/>
<path d="M109.31 144.265L114.656 136.775L109.297 145.088L109.283 145.948C108.909 145.94 108.538 145.922 108.172 145.897L108.748 134.853L108.744 134.767L108.754 134.751L108.808 133.708L103.435 125.374L108.825 132.926L108.837 133.147L109.273 124.803L104.673 116.191L109.329 123.338L109.782 106.038L109.784 105.98V106.037L109.708 119.679L114.288 114.27L109.69 120.854L109.568 128.325L113.844 121.155L109.551 129.424L109.483 133.578L115.69 123.598L109.46 135.027L109.31 144.265Z" fill="#3F3D56"/>
<path d="M181.944 135.665C181.944 147.69 174.815 151.889 166.02 151.889C165.816 151.889 165.613 151.887 165.41 151.882C165.002 151.874 164.599 151.854 164.2 151.827C156.263 151.264 150.097 146.849 150.097 135.665C150.097 124.091 164.846 109.487 165.954 108.406L165.956 108.404C165.999 108.362 166.02 108.342 166.02 108.342C166.02 108.342 181.944 123.64 181.944 135.665Z" fill="#EC6E4C"/>
<path d="M165.44 150.05L171.264 141.889L165.425 150.946L165.41 151.882C165.002 151.874 164.599 151.854 164.2 151.827L164.828 139.796L164.823 139.702L164.833 139.685L164.893 138.549L159.04 129.47L164.911 137.696L164.925 137.938L165.399 128.847L160.388 119.466L165.46 127.252L165.954 108.406L165.956 108.342V108.404L165.873 123.265L170.862 117.374L165.853 124.545L165.721 132.684L170.379 124.873L165.702 133.882L165.628 138.406L172.39 127.535L165.603 139.985L165.44 150.05Z" fill="#3F3D56"/>
<path d="M156.23 133.78C156.869 132.429 153.908 129.679 149.616 127.637C145.325 125.596 141.327 125.037 140.688 126.388C140.049 127.739 143.01 130.489 147.302 132.53C151.594 134.571 155.591 135.131 156.23 133.78Z" fill="#2F2E41"/>
<path d="M23.8376 132.201C24.3923 130.813 21.2678 128.251 16.8587 126.479C12.4496 124.707 8.42554 124.395 7.87075 125.783C7.31596 127.171 10.4405 129.733 14.8496 131.505C19.2587 133.277 23.2828 133.589 23.8376 132.201Z" fill="#2F2E41"/>
</g>
<defs>
<clipPath id="clip0">
<rect width="244" height="169.852" fill="white"/>
</clipPath>
</defs>
</svg>
